<?xml version="1.0" standalone="no"?>
<!DOCTYPE svg PUBLIC "-//W3C//DTD SVG 20010904//EN"
 "http://www.w3.org/TR/2001/REC-SVG-20010904/DTD/svg10.dtd">
<svg version="1.0" xmlns="http://www.w3.org/2000/svg"
 width="768.000000pt" height="768.000000pt" viewBox="0 0 768.000000 768.000000"
 preserveAspectRatio="xMidYMid meet">
<metadata>
Created by potrace 1.11, written by Peter Selinger 2001-2013
</metadata>
<g transform="translate(0.000000,768.000000) scale(0.100000,-0.100000)"
fill="#000000" stroke="none">
<path d="M0 3840 l0 -3840 3840 0 3840 0 0 3840 0 3840 -3840 0 -3840 0 0
-3840z m4215 2165 c245 -38 524 -125 701 -219 562 -299 897 -801 1005 -1509
30 -192 33 -609 6 -792 -48 -321 -121 -554 -252 -803 -308 -581 -860 -960
-1526 -1046 -556 -72 -1117 34 -1528 289 -492 305 -784 782 -888 1455 -25 162
-25 635 0 797 80 524 286 956 607 1272 342 336 771 526 1300 575 93 8 478 -4
575 -19z"/>
<path d="M3645 5904 c-366 -80 -664 -464 -821 -1059 -79 -302 -116 -624 -116
-1020 0 -472 46 -799 161 -1146 177 -531 467 -859 829 -939 147 -33 285 -21
430 37 346 139 622 581 746 1195 58 291 70 432 71 843 0 309 -3 406 -18 520
-107 831 -432 1395 -892 1551 -101 34 -280 42 -390 18z"/>
</g>
</svg>
